<svg width="1027" height="819" viewBox="0 0 1027 819" fill="none" xmlns="http://www.w3.org/2000/svg">
<g id="Group 1">
<path id="Cart Outline" d="M816 612V436.69C816 416.488 800.573 399.63 780.45 397.843L230.484 349M816 612H692H391.617C377.1 612 363.784 603.936 357.057 591.071L230.484 349M816 612L791.632 688.795C786.492 704.995 771.454 716 754.459 716H368M230.484 349L167.169 235.944C160.272 223.628 147.258 216 133.142 216H0" stroke="black" stroke-width="28"/>
<g id="Wheel2">
<circle cx="378.5" cy="743.5" r="75.5" fill="black"/>
<circle cx="378.5" cy="743.5" r="75.5" fill="black"/>
<circle cx="378.5" cy="743.5" r="75.5" fill="black"/>
</g>
<g id="Wheel1">
<circle cx="787.5" cy="743.5" r="75.5" fill="black"/>
<circle cx="787.5" cy="743.5" r="75.5" fill="black"/>
<circle cx="787.5" cy="743.5" r="75.5" fill="black"/>
</g>
<path id="CartMesh" d="M307 360L370 608M307 360L390 367.5M307 360L746.84 395.302C758.791 396.261 768 406.239 768 418.228V608M307 360H284.468C267.804 360 256.671 377.168 263.469 392.383L312 501M370 608H390M370 608L341 554.5M473 608V375M473 608H390M473 608H541M473 375L390 367.5M473 375L541 382M609 389V585C609 597.703 598.703 608 586 608H541M609 389L541 382M609 389L666.5 393M390 367.5V608M541 382V608M666.5 393L702.596 395.511C714.65 396.35 724 406.372 724 418.456V585C724 597.703 713.703 608 701 608H689.5C676.797 608 666.5 597.703 666.5 585V393ZM312 501L301.14 476.238C294.474 461.04 305.607 444 322.203 444H819M312 501H819M312 501L341 554.5M341 554.5H819" stroke="black" stroke-width="9"/>
<circle id="ItemCountCircle" cx="877" cy="150" r="150" fill="#C90000"/>
</g>
</svg>
