<svg width="564" height="340" viewBox="0 0 564 340" fill="none" xmlns="http://www.w3.org/2000/svg">
<path d="M24.48 228C18.912 228 14.624 226.656 11.616 223.968C8.672 221.216 7.2 217.12 7.2 211.68V177.12C7.2 171.68 8.672 167.616 11.616 164.928C14.624 162.176 18.912 160.8 24.48 160.8H36.192V168.096H23.52C21.152 168.096 19.232 168.8 17.76 170.208C16.288 171.616 15.552 173.312 15.552 175.296V213.504C15.552 215.488 16.288 217.184 17.76 218.592C19.232 220 21.152 220.704 23.52 220.704H36.192V228H24.48ZM78.2618 212.64C78.2618 218.016 76.9178 221.92 74.2298 224.352C71.6058 226.784 67.5098 228 61.9418 228H60.6938C55.1258 228 50.9978 226.784 48.3098 224.352C45.6858 221.92 44.3738 218.016 44.3738 212.64V195.36C44.3738 189.984 45.6858 186.08 48.3098 183.648C50.9978 181.216 55.1258 180 60.6938 180H61.9418C67.5098 180 71.6058 181.216 74.2298 183.648C76.9178 186.08 78.2618 189.984 78.2618 195.36V212.64ZM70.1018 193.44C70.1018 191.456 69.4938 189.92 68.2778 188.832C67.0618 187.744 65.2698 187.2 62.9018 187.2H59.7338C57.3658 187.2 55.5738 187.744 54.3578 188.832C53.1418 189.92 52.5338 191.456 52.5338 193.44V214.56C52.5338 216.544 53.1418 218.08 54.3578 219.168C55.5738 220.256 57.3658 220.8 59.7338 220.8H62.9018C65.2698 220.8 67.0618 220.256 68.2778 219.168C69.4938 218.08 70.1018 216.544 70.1018 214.56V193.44ZM91.2375 180H98.9175V182.304C100.902 180.768 103.462 180 106.598 180H107.174C112.998 180 117.158 181.472 119.654 184.416C122.022 181.472 125.318 180 129.542 180H130.118C135.302 180 139.142 181.216 141.638 183.648C144.198 186.08 145.478 189.984 145.478 195.36V228H137.318V193.44C137.318 191.52 136.742 190.016 135.59 188.928C134.502 187.776 132.998 187.2 131.078 187.2H128.582C126.598 187.2 125.094 187.808 124.07 189.024C123.11 190.176 122.566 191.424 122.438 192.768V228H114.278V193.44C114.278 191.52 113.734 190.016 112.646 188.928C111.558 187.776 110.054 187.2 108.134 187.2H105.638C103.59 187.2 102.022 187.744 100.934 188.832C99.9095 189.856 99.3975 190.976 99.3975 192.192V228H91.2375V180ZM158.891 180H166.571V182.304C168.555 180.768 171.115 180 174.251 180H175.787C181.419 180 185.547 181.216 188.171 183.648C190.795 186.016 192.107 189.92 192.107 195.36V212.64C192.107 218.016 190.763 221.92 188.075 224.352C185.451 226.784 181.355 228 175.787 228H167.051V244.32H158.891V180ZM173.291 187.2C171.179 187.2 169.611 187.776 168.587 188.928C167.563 190.016 167.051 191.2 167.051 192.48V220.8H176.747C179.115 220.8 180.907 220.256 182.123 219.168C183.339 218.08 183.947 216.544 183.947 214.56V193.44C183.947 191.456 183.339 189.92 182.123 188.832C180.907 187.744 179.115 187.2 176.747 187.2H173.291ZM233.396 228C232.564 228 231.636 227.744 230.612 227.232C229.652 226.72 228.82 226.016 228.116 225.12C226.644 227.04 224.692 228 222.26 228H215.636C210.772 228 207.22 227.04 204.98 225.12C202.804 223.136 201.716 219.776 201.716 215.04V213.12C201.716 203.2 206.388 198.24 215.732 198.24H225.716V193.44C225.716 191.456 225.108 189.92 223.892 188.832C222.676 187.744 220.884 187.2 218.516 187.2H205.556V180H217.556C223.124 180 227.22 181.216 229.844 183.648C232.532 186.08 233.876 189.984 233.876 195.36V218.4C233.876 219.36 234.228 220.096 234.932 220.608C235.7 221.056 236.948 221.28 238.676 221.28V228H233.396ZM221.3 220.8C223.22 220.8 224.436 220.352 224.948 219.456C225.46 218.56 225.716 217.408 225.716 216V205.44H215.636C213.972 205.44 212.596 205.984 211.508 207.072C210.42 208.16 209.876 209.536 209.876 211.2V216C209.876 217.664 210.26 218.88 211.028 219.648C211.796 220.416 213.012 220.8 214.676 220.8H221.3ZM248.73 180H256.41V182.304C258.394 180.768 260.954 180 264.09 180H266.586C271.77 180 275.61 181.216 278.106 183.648C280.666 186.08 281.946 189.984 281.946 195.36V228H273.786V193.44C273.786 191.52 273.21 190.016 272.058 188.928C270.97 187.776 269.466 187.2 267.546 187.2H263.13C261.018 187.2 259.45 187.776 258.426 188.928C257.402 190.016 256.89 191.2 256.89 192.48V228H248.73V180ZM313.934 232.224C313.166 235.104 312.366 237.408 311.534 239.136C310.702 240.928 309.518 242.304 307.982 243.264C306.51 244.288 304.526 244.8 302.03 244.8C300.686 244.8 298.862 244.608 296.558 244.224V237.216C298.35 237.472 300.014 237.6 301.55 237.6C303.342 237.6 304.622 236.16 305.39 233.28L306.926 228H305.006L290.126 180H298.958L310.094 219.648L319.502 180H327.854L313.934 232.224Z" fill="white"/>
<path d="M41.856 107.72C41.856 112.904 40.48 116.744 37.728 119.24C34.976 121.672 30.912 122.888 25.536 122.888H16.512V149H8.16V81.8H25.344C30.784 81.8 34.88 83.016 37.632 85.448C40.448 87.816 41.856 91.592 41.856 96.776V107.72ZM33.504 95.912C33.504 93.48 32.928 91.72 31.776 90.632C30.688 89.544 28.928 89 26.496 89H16.512V115.688H26.496C28.928 115.688 30.688 115.144 31.776 114.056C32.928 112.904 33.504 111.112 33.504 108.68V95.912ZM52.9163 90.44V81.8H62.0363V90.44H52.9163ZM53.3963 149V101H61.5563V149H53.3963ZM80.9595 141.896H100.736V149H72.1275V141.32L92.9595 108.104H74.0475V101H101.696V109.544L80.9595 141.896ZM118.238 141.896H138.014V149H109.406V141.32L130.238 108.104H111.326V101H138.974V109.544L118.238 141.896ZM178.365 149C177.533 149 176.605 148.744 175.581 148.232C174.621 147.72 173.789 147.016 173.085 146.12C171.613 148.04 169.661 149 167.229 149H160.605C155.741 149 152.189 148.04 149.949 146.12C147.773 144.136 146.685 140.776 146.685 136.04V134.12C146.685 124.2 151.357 119.24 160.701 119.24H170.685V114.44C170.685 112.456 170.077 110.92 168.861 109.832C167.645 108.744 165.853 108.2 163.485 108.2H150.525V101H162.525C168.093 101 172.189 102.216 174.813 104.648C177.501 107.08 178.845 110.984 178.845 116.36V139.4C178.845 140.36 179.197 141.096 179.901 141.608C180.669 142.056 181.917 142.28 183.645 142.28V149H178.365ZM166.269 141.8C168.189 141.8 169.405 141.352 169.917 140.456C170.429 139.56 170.685 138.408 170.685 137V126.44H160.605C158.941 126.44 157.565 126.984 156.477 128.072C155.389 129.16 154.845 130.536 154.845 132.2V137C154.845 138.664 155.229 139.88 155.997 140.648C156.765 141.416 157.981 141.8 159.645 141.8H166.269ZM24.48 228C18.912 228 14.624 226.656 11.616 223.968C8.672 221.216 7.2 217.12 7.2 211.68V177.12C7.2 171.68 8.672 167.616 11.616 164.928C14.624 162.176 18.912 160.8 24.48 160.8H36.192V168.096H23.52C21.152 168.096 19.232 168.8 17.76 170.208C16.288 171.616 15.552 173.312 15.552 175.296V213.504C15.552 215.488 16.288 217.184 17.76 218.592C19.232 220 21.152 220.704 23.52 220.704H36.192V228H24.48ZM78.2618 212.64C78.2618 218.016 76.9178 221.92 74.2298 224.352C71.6058 226.784 67.5098 228 61.9418 228H60.6938C55.1258 228 50.9978 226.784 48.3098 224.352C45.6858 221.92 44.3738 218.016 44.3738 212.64V195.36C44.3738 189.984 45.6858 186.08 48.3098 183.648C50.9978 181.216 55.1258 180 60.6938 180H61.9418C67.5098 180 71.6058 181.216 74.2298 183.648C76.9178 186.08 78.2618 189.984 78.2618 195.36V212.64ZM70.1018 193.44C70.1018 191.456 69.4938 189.92 68.2778 188.832C67.0618 187.744 65.2698 187.2 62.9018 187.2H59.7338C57.3658 187.2 55.5738 187.744 54.3578 188.832C53.1418 189.92 52.5338 191.456 52.5338 193.44V214.56C52.5338 216.544 53.1418 218.08 54.3578 219.168C55.5738 220.256 57.3658 220.8 59.7338 220.8H62.9018C65.2698 220.8 67.0618 220.256 68.2778 219.168C69.4938 218.08 70.1018 216.544 70.1018 214.56V193.44ZM91.2375 180H98.9175V182.304C100.902 180.768 103.462 180 106.598 180H107.174C112.998 180 117.158 181.472 119.654 184.416C122.022 181.472 125.318 180 129.542 180H130.118C135.302 180 139.142 181.216 141.638 183.648C144.198 186.08 145.478 189.984 145.478 195.36V228H137.318V193.44C137.318 191.52 136.742 190.016 135.59 188.928C134.502 187.776 132.998 187.2 131.078 187.2H128.582C126.598 187.2 125.094 187.808 124.07 189.024C123.11 190.176 122.566 191.424 122.438 192.768V228H114.278V193.44C114.278 191.52 113.734 190.016 112.646 188.928C111.558 187.776 110.054 187.2 108.134 187.2H105.638C103.59 187.2 102.022 187.744 100.934 188.832C99.9095 189.856 99.3975 190.976 99.3975 192.192V228H91.2375V180ZM158.891 180H166.571V182.304C168.555 180.768 171.115 180 174.251 180H175.787C181.419 180 185.547 181.216 188.171 183.648C190.795 186.016 192.107 189.92 192.107 195.36V212.64C192.107 218.016 190.763 221.92 188.075 224.352C185.451 226.784 181.355 228 175.787 228H167.051V244.32H158.891V180ZM173.291 187.2C171.179 187.2 169.611 187.776 168.587 188.928C167.563 190.016 167.051 191.2 167.051 192.48V220.8H176.747C179.115 220.8 180.907 220.256 182.123 219.168C183.339 218.08 183.947 216.544 183.947 214.56V193.44C183.947 191.456 183.339 189.92 182.123 188.832C180.907 187.744 179.115 187.2 176.747 187.2H173.291ZM233.396 228C232.564 228 231.636 227.744 230.612 227.232C229.652 226.72 228.82 226.016 228.116 225.12C226.644 227.04 224.692 228 222.26 228H215.636C210.772 228 207.22 227.04 204.98 225.12C202.804 223.136 201.716 219.776 201.716 215.04V213.12C201.716 203.2 206.388 198.24 215.732 198.24H225.716V193.44C225.716 191.456 225.108 189.92 223.892 188.832C222.676 187.744 220.884 187.2 218.516 187.2H205.556V180H217.556C223.124 180 227.22 181.216 229.844 183.648C232.532 186.08 233.876 189.984 233.876 195.36V218.4C233.876 219.36 234.228 220.096 234.932 220.608C235.7 221.056 236.948 221.28 238.676 221.28V228H233.396ZM221.3 220.8C223.22 220.8 224.436 220.352 224.948 219.456C225.46 218.56 225.716 217.408 225.716 216V205.44H215.636C213.972 205.44 212.596 205.984 211.508 207.072C210.42 208.16 209.876 209.536 209.876 211.2V216C209.876 217.664 210.26 218.88 211.028 219.648C211.796 220.416 213.012 220.8 214.676 220.8H221.3ZM248.73 180H256.41V182.304C258.394 180.768 260.954 180 264.09 180H266.586C271.77 180 275.61 181.216 278.106 183.648C280.666 186.08 281.946 189.984 281.946 195.36V228H273.786V193.44C273.786 191.52 273.21 190.016 272.058 188.928C270.97 187.776 269.466 187.2 267.546 187.2H263.13C261.018 187.2 259.45 187.776 258.426 188.928C257.402 190.016 256.89 191.2 256.89 192.48V228H248.73V180ZM313.934 232.224C313.166 235.104 312.366 237.408 311.534 239.136C310.702 240.928 309.518 242.304 307.982 243.264C306.51 244.288 304.526 244.8 302.03 244.8C300.686 244.8 298.862 244.608 296.558 244.224V237.216C298.35 237.472 300.014 237.6 301.55 237.6C303.342 237.6 304.622 236.16 305.39 233.28L306.926 228H305.006L290.126 180H298.958L310.094 219.648L319.502 180H327.854L313.934 232.224Z" fill="white"/>
<path d="M24.576 10.096V70H16.224V10.096H1.44V2.8H39.36V10.096H24.576ZM47.0213 2.8H55.1813V23.92C57.1013 22.64 59.5013 22 62.3813 22H64.8773C70.0613 22 73.9013 23.216 76.3973 25.648C78.9573 28.08 80.2373 31.984 80.2373 37.36V70H72.0773V35.44C72.0773 33.52 71.5013 32.016 70.3493 30.928C69.2613 29.776 67.7573 29.2 65.8373 29.2H61.4213C59.3733 29.2 57.8053 29.744 56.7173 30.832C55.6933 31.856 55.1813 32.976 55.1813 34.192V70H47.0213V2.8ZM109.035 70C103.403 70 99.275 68.816 96.651 66.448C94.027 64.016 92.715 60.08 92.715 54.64V37.36C92.715 31.856 93.899 27.92 96.267 25.552C98.635 23.184 102.571 22 108.075 22H110.667C115.211 22 118.635 23.28 120.939 25.84C123.307 28.336 124.491 32.016 124.491 36.88V49.36H100.875V56.56C100.875 58.544 101.483 60.08 102.699 61.168C103.915 62.256 105.707 62.8 108.075 62.8H121.419V70H109.035ZM116.523 42.16V34.96C116.523 33.296 115.979 31.92 114.891 30.832C113.803 29.744 112.427 29.2 110.763 29.2H107.115C104.811 29.2 103.179 29.744 102.219 30.832C101.323 31.856 100.875 33.392 100.875 35.44V42.16H116.523Z" fill="white"/>
</svg>
