<svg width="838" height="852" viewBox="0 0 838 852" fill="none" xmlns="http://www.w3.org/2000/svg">
<path fill-rule="evenodd" clip-rule="evenodd" d="M403.222 156.553C419.1 170.096 438.658 181.75 451.738 188.256C457.672 191.207 460.09 198.41 457.138 204.344C454.187 210.278 446.984 212.696 441.05 209.744C426.732 202.623 405.399 189.954 387.647 174.814C378.775 167.246 370.401 158.729 364.278 149.634C358.215 140.629 353.671 130.026 354.273 118.652C355.066 103.672 365.152 92.5454 374.992 84.3374C382.256 78.2787 391.258 72.3627 399.658 66.8419C402.703 64.8409 405.669 62.8919 408.444 61.0068C419.679 53.3755 428.407 46.4456 433.332 39.1833C437.621 32.8592 439.007 26.4425 435.322 17.6284C432.766 11.5138 435.651 4.48474 441.765 1.92852C447.88 -0.627674 454.909 2.25699 457.465 8.37159C464.568 25.3624 461.588 40.2795 453.195 52.6545C445.438 64.0912 433.169 73.2255 421.929 80.86C418.394 83.2614 414.963 85.5162 411.66 87.6869L411.66 87.6871C403.712 92.9099 396.506 97.646 390.365 102.768C381.616 110.065 378.475 115.482 378.24 119.92C378.02 124.079 379.658 129.504 384.186 136.23C388.653 142.865 395.279 149.779 403.222 156.553ZM571.07 538.104C583.297 560.897 561.235 586.868 536.306 579.026L277.503 497.621C257.526 491.337 250.629 466.95 264.411 451.33L398.198 299.7C411.672 284.429 436.475 287.212 446.054 305.069L571.07 538.104ZM708.061 417.488C696.854 432.905 687.182 451.939 681.768 464.709C679.182 470.811 672.138 473.661 666.037 471.074C659.935 468.487 657.085 461.444 659.672 455.342C665.561 441.449 676.064 420.688 688.648 403.376C694.925 394.741 702.065 386.481 709.788 380.381C717.348 374.408 726.89 369.395 737.583 370.059C751.647 370.932 761.404 381.835 767.965 391.065C773.002 398.151 777.918 406.927 782.499 415.105L782.505 415.115L782.519 415.141C784.17 418.088 785.778 420.958 787.332 423.642C793.713 434.666 799.396 442.997 805.167 447.589C807.841 449.718 810.054 450.636 811.942 450.906C813.733 451.162 816.197 450.978 819.715 449.252C825.666 446.333 832.855 448.791 835.774 454.741C838.692 460.691 836.235 467.881 830.284 470.799C823.101 474.323 815.79 475.701 808.543 474.664C801.393 473.641 795.304 470.412 790.223 466.369C780.484 458.619 772.842 446.515 766.561 435.667C764.565 432.219 762.692 428.875 760.89 425.658L760.889 425.656L760.887 425.653C756.559 417.927 752.64 410.93 748.404 404.971C742.104 396.109 738.139 394.139 736.096 394.012C733.905 393.876 730.152 394.879 724.665 399.213C719.34 403.42 713.68 409.758 708.061 417.488ZM134.694 408.857C130.007 421.685 121.65 440.76 111.979 456.197C107.118 463.956 102.267 470.24 97.7753 474.357C93.0102 478.725 90.4493 479.039 89.8422 478.996C89.841 478.995 89.8153 478.994 89.752 478.976C89.6855 478.957 89.556 478.912 89.3586 478.813C88.9479 478.606 88.2881 478.182 87.3932 477.357C85.5243 475.633 83.3342 472.822 80.8165 468.713C77.1562 462.739 73.7631 455.71 70.028 447.973L70.0277 447.972L70.027 447.971L70.0269 447.971L70.0258 447.968C68.4748 444.755 66.8648 441.42 65.1522 437.988C59.7786 427.218 53.1869 415.065 44.6731 407.204C40.2184 403.091 34.5861 399.522 27.6835 398.377C20.5955 397.2 13.6138 398.818 7.06446 402.545C1.30454 405.823 -0.707365 413.15 2.57074 418.91C5.84885 424.67 13.1756 426.682 18.9355 423.404C21.6097 421.882 23.0525 421.937 23.754 422.053C24.6409 422.2 26.1631 422.779 28.3921 424.837C33.2455 429.319 38.1376 437.601 43.6769 448.703C45.0279 451.411 46.4229 454.3 47.8541 457.265C51.7996 465.438 56.0201 474.181 60.3521 481.251C63.3765 486.188 66.914 491.118 71.1223 494.999C75.3699 498.917 81.0313 502.423 88.1178 502.934C98.6154 503.69 107.512 497.988 113.992 492.049C120.746 485.859 126.926 477.545 132.317 468.939C143.151 451.647 152.182 430.927 157.236 417.092C159.511 410.867 156.308 403.977 150.083 401.703C143.858 399.429 136.968 402.632 134.694 408.857ZM379.157 663.744C392.237 670.25 411.795 681.904 427.673 695.447C435.616 702.221 442.242 709.135 446.709 715.77C451.237 722.496 452.875 727.921 452.655 732.08C452.42 736.518 449.279 741.935 440.53 749.232C434.389 754.354 427.183 759.09 419.236 764.313L419.235 764.313C415.932 766.484 412.501 768.739 408.966 771.14C397.726 778.774 385.457 787.909 377.7 799.346C369.307 811.721 366.327 826.638 373.43 843.628C375.986 849.743 383.015 852.628 389.13 850.071C395.244 847.515 398.129 840.486 395.573 834.372C391.888 825.557 393.274 819.141 397.563 812.817C402.488 805.554 411.216 798.625 422.451 790.993C425.223 789.11 428.185 787.164 431.225 785.165L431.237 785.158C439.637 779.637 448.639 773.721 455.902 767.663C465.743 759.455 475.829 748.328 476.622 733.348C477.224 721.974 472.68 711.371 466.617 702.366C460.494 693.271 452.12 684.754 443.248 677.186C425.496 662.046 404.163 649.377 389.845 642.256C383.911 639.304 376.708 641.722 373.757 647.656C370.805 653.59 373.223 660.793 379.157 663.744Z" fill="white" fill-opacity="0.05"/>
</svg>
